<?xml version="1.0" encoding="UTF-8"?>
<svg enable-background="new 0 0 612 792" version="1.1" viewBox="0 0 612 792" xmlns="http://www.w3.org/2000/svg">
 <path d="m487.36 267.33c9.904-4.458 13.34-25.234 16.902-29.831 2.385 16.712 5.055 31.885 4.273 36.541" fill="#252223"/>
 <path d="m422.11 281.58c-2.812 17.009-18.118 28.042-32.47 25.653-14.374-2.385-23.75-18.095-20.922-35.088 2.819-16.993 16.76-28.852 31.126-26.462 14.344 2.37 25.101 18.893 22.266 35.897z"/>
 <path d="m471.32 279.87c-2.638 15.895-15.03 27.083-27.69 24.986-12.661-2.097-21.704-14.616-19.059-30.519 2.646-15.899 15.931-29.152 28.615-27.051 12.654 2.089 20.781 16.681 18.134 32.584z" fill="#252223"/>
 <path d="m516.82 284.16s10.292-14.208-10.22-63.24c0 0-49.103 52.866-50.643 62.162-1.54 9.292 45.778 11.828 60.863 1.078z"/>
 <path d="m312.1 299.56s-22.392-21.755 6.824-69.978c27.726 24.769 51.054 40.833 49.355 57.538s-34.842 5.379-56.179 12.44z"/>
 <path d="m158.66 399.34s-124.83-153.05-21.87-232.84c9.766-7.586 35.684 10.639 28.757 18.557-57.613 65.847 12.361 181.39 12.361 181.39s-8.913 40.963-19.248 32.891z"/>
 <path d="m326.93 286.9s172.91-12.448 189.9-2.733c16.942 9.695-1.974 53.261-8.309 59.651-6.374 6.358-15.575 5.892-19.627 3.1-3.451-2.369-1.556-9.806-8.277-14.094-6.697-4.316-105.05 12.815-115.9 20.571-10.82 7.76-26.53 64.042-9.833 65.729 16.697 1.722 90.362 11.808 95.181 8.36 4.826-3.436 9.091-35.613 15.307-34.594 6.185 1.031 17.51 15.903 12.7 44.819-4.794 28.914-10.015 54.042-32.208 53.557 14.571 41.679 4.699 75.66 4.193 78.769-0.521 3.092-7.858 22.103-10.252 4.735-3.681 2.614-6.311 2.787-8.42 2.097-10.275-3.42-5.401-14.706-4.02-22.909 1.872-11.377 10.102-53.446-2.97-64.101-13.096-10.675-35.66 45.596-36.466 59.192-1.122 19.098-19.722 43.021-19.729 23.899-6.769 2.465-9.841 2.311-11.603 1.358-6.026-3.183 0.979-9.766 4.092-20.551 4.968-17.198 22.825-66.641 24.879-79.036-20.322 20.238-133.35 32.457-141.63 31.079-8.253-1.358-26.633 58.197-29.199 73.682-2.571 15.5-12.483 16.132-11.504 5.528 0 0-7.302 3.819-11.67 2.334-9.77-3.306-2.709-10.809-2.682-14.094 0.166-23.004 23.616-48.922 25.152-58.205 1.532-9.285-3.495-6.288-2.188-16.417-14.283 15.658-23.662 12.25-27.335 5.544 0.446 11.753-39.515 73.296-40.502 79.512-1.505 9.478-20.476 21.171-16.878-0.518-7.128 4.454-6.781 8.056-12.057 4.079-3.448-2.606-2.883-7.36 1.216-15.587 6.374-12.748 36.434-59.773 43.124-80.94-15.314-3.602-10.034-97.827 12.542-142.77 21.725-43.262 122.79-65.322 154.97-61.049z"/>
 <path d="m146.87 374.57s-99.079-124.93-9.462-205.32c2.247-2.034 3.878 6.753 10.022 9.786 6.828 3.353 17.913 1.311 13.968 5.173-58.711 57.009 8.08 175.53 8.08 175.53s-12.305 22.904-22.608 14.829z" fill="#D5813B"/>
 <path d="m515.27 284.93s4.353-22.592-9.446-61.736c0 0-42.034 54.367-50.627 62.159-6.975 6.33 45.011 10.362 60.073-0.423z" fill="#D5813B"/>
 <path d="m311.79 295.6s-14.043-12.744 7.483-61.716c27.727 24.761 49.521 37.323 47.807 54.019-1.713 16.681-33.938 0.616-55.29 7.697z" fill="#D5813B"/>
 <path d="m312.41 290.46s189.73-20.014 202.86-5.537c12.195 13.474-1.689 50.699-8.048 57.072-6.35 6.374-10.078 4.928-14.193 4.233-4.13-0.675-5.157-9.651-11.01-15.038-11.974-11.022-105.07 9.6-118.51 18.478-29.795 19.651-27.414 67.146-11.542 72.584 15.081 5.149 94.528 12.562 99.323 9.106 4.817-3.443 7.866-36.32 14.066-35.297 6.2 1.038 13.261 14.899 8.111 43.744-8.001 44.636-10.078 46.401-32.271 45.911 14.596 41.671 8.309 74.508 7.787 77.607-0.513 3.101-3.799 19.975-6.224 2.604-6.61 4.73-6.863 10.614-12.424 7.803-1.469-0.723-2.37-5.426-1.438-11.108 1.888-11.358 13.759-69.599-3.988-82.488-13.664-9.904-41.458 63.055-43.677 76.493-2.228 13.428-10.292 28.809-10.307 9.703-3.697 1.026-7.631 9.075-12.298 4.628-1.24-1.169 2.306-5.947 4.715-14.579 9.423-34.058 41.963-98.708 21.128-91.134-22.294 24.182-132.47 36.83-140.74 35.452-8.266-1.358-27.392 53.802-29.954 69.287-2.567 15.492-9.865 28.287-10.588 6.95 0 0-7.4 8.537-10.674 7.372-4.384-1.544-1.229-2.321-0.249-10.915 2.124-18.536 25.01-49.939 25.223-60.776 0.189-9.43-5.596-6.523-4.328-16.656-23.193 17.506-25.953 6.922-28.899 6.559-6.678 18.889-42.448 78.54-46.879 86.698-3.456 6.279-10.446 6.065-6.849-15.634-10.058 6.29-8.703 14.086-14.615 9.446-1.07-0.842-0.727-4.676 2.437-11.05 6.362-12.732 40.699-58.024 46.797-80.36-15.326-3.605-9.79-101.05 16.617-145.24 24.862-41.532 98.541-55.28 130.65-55.923z" fill="#D5813B"/>
 <path d="m424.99 283.12c-1.13 16.871-13.214 25.831-28.489 24.82-15.307-1.023-24.831-11.994-23.702-28.892 1.13-16.91 14.43-29.776 29.729-28.753 15.29 1.024 23.583 15.904 22.462 32.825z" fill="#fff"/>
 <path d="m418.36 288.6c-1.271 7.622-8.435 12.759-16.01 11.512-7.574-1.264-12.685-8.447-11.421-16.061 1.264-7.618 8.42-12.787 15.994-11.523 7.567 1.263 12.685 8.438 11.437 16.072z"/>
 <path d="m467 285.32c-3.846 15.133-15.622 22.482-28.37 19.26-12.739-3.219-21.665-15.8-17.826-30.945 3.847-15.137 17.273-24.804 30.021-21.574 12.763 3.223 20.014 18.111 16.175 33.259z" fill="#fff"/>
 <path d="m463.8 285.98c-1.121 6.765-7.479 11.322-14.216 10.205-6.745-1.122-11.318-7.496-10.196-14.232 1.121-6.753 7.495-11.294 14.256-10.173 6.729 1.11 11.278 7.475 10.156 14.2z"/>
 <path d="m441.86 320.15c-0.363 3.112-6.658 3.965-6.824 0.237-0.126-3.037-7.756 9.849-11.586 7.851 0 0 8.948-17.688 15.653-17.645 8.428 0.031 11.271 6.626 10.047 12.388-0.884 4.127-6.192-11.609-7.29-2.831z"/>
 <path d="m524.59 330.02s15.907-12.759 14.959-7.073c-0.924 5.675-1.106 6.717-14.959 7.073z" fill="none" stroke="#252223" stroke-width=".2911"/>
 <path d="m542.34 350.99s20.978-5 18.063-0.17c-2.915 4.818-2.757 6.958-18.063 0.17z" fill="none" stroke="#252223" stroke-width=".2911"/>
 <polygon points="366.05 353.25 370.97 370.08 375.72 349.9" fill="#fff" stroke="#000" stroke-linecap="round" stroke-linejoin="round" stroke-width="1.17"/>
 <path d="m453.99 347.81c-0.261 0.186-0.561 0.296-0.877 0.332-0.821 0.083-1.596-0.375-1.911-1.134l-5.553-12.89c-0.26-0.565-0.197-1.204 0.127-1.733 0.126-0.217 0.308-0.415 0.513-0.553 0.293-0.201 0.616-0.32 0.972-0.335l8.316-0.454c0.585-0.032 1.146 0.205 1.524 0.651 0.379 0.438 0.529 1.035 0.411 1.607l-2.757 13.344c-0.109 0.485-0.378 0.896-0.765 1.165z" fill="#fff"/>
 <path d="m447.35 333.37l8.316-0.454-2.764 13.348-5.552-12.894m-2.141-3.077c-0.41 0.288-0.766 0.656-1.042 1.098-0.648 1.051-0.743 2.342-0.262 3.468l5.562 12.89c0.647 1.5 2.195 2.413 3.83 2.243 0.64-0.063 1.248-0.292 1.754-0.652 0.773-0.537 1.335-1.347 1.532-2.314l2.756-13.352c0.245-1.137-0.063-2.322-0.821-3.207-0.766-0.881-1.896-1.363-3.057-1.299l-8.309 0.462c-0.703 0.036-1.374 0.272-1.943 0.663z"/>
 <polygon points="402.78 341.21 409.43 358.22 413.19 338.86" fill="#fff" stroke="#000" stroke-linecap="round" stroke-linejoin="round" stroke-width=".8879"/>
 <polygon points="354.71 420.16 368.14 403.44 371.22 421.39" fill="#fff" stroke="#000" stroke-linecap="round" stroke-linejoin="round" stroke-width=".8879"/>
 <polygon points="428.92 428.63 437.86 411.84 444.53 429.74" fill="#fff" stroke="#000" stroke-linecap="round" stroke-linejoin="round" stroke-width=".8879"/>
 <polygon points="391.75 425.37 400.47 406.67 408.18 426.73" fill="#fff" stroke="#000" stroke-linecap="round" stroke-linejoin="round" stroke-width=".8879"/>
 <path d="m350.16 276.44s-28.157-16.136-28.395-29.938c-8.226 15.235-1.635 36.62-1.635 36.62"/>
 <path d="m406.42 285.92c-0.797 4.782-5.015 8.068-9.414 7.341-4.407-0.742-7.314-5.193-6.524-9.983 0.798-4.791 5-8.072 9.407-7.341 4.399 0.726 7.321 5.189 6.531 9.983z" fill="#fff"/>
 <path d="m449.99 282.62c-0.884 5.323-5.315 9.012-9.928 8.266-4.589-0.782-7.598-5.707-6.705-11.026 0.876-5.312 5.308-9 9.912-8.238 4.605 0.751 7.606 5.671 6.721 10.998z" fill="#fff"/>
 <path d="m197.71 323.84s-16.483 44.119-25.124 82.942c-7.768 35.009-8.237 64.946-0.391 67.755 16.531 5.915 11.279-18.427 2.397-17.716 0 0 16.286-18.201 3.89-23.414 19.884-11.836 10.059-19.043 2.649-22.384 0 0 21.681-9.139 6.524-20.148 15.216-6.168 20.949-22.735 5.75-21.862 19.291-14.69 14.777-21.945 4.802-25.736 20.031-2.507 22.306-35.293-0.497-19.437z"/>
 <path d="m287.35 290.48l-14.43 4.64s-8.917 15.382-12.437 36.723c-2.381 14.544-10.378 33.606-12.396 50.765-4.616 39.282-1.335 75.914 5.493 77.836 14.217 3.934 16.313-11.891-0.142-24.713 14.706-5.51 14.169-18.336 3.088-21.764 16.349-2.614 14.094-17.818 0.837-21.088 9.272-5.553 11.393-18.676 2.002-22.889 8.681-4.313 17.933-20.496 7.097-22.297 12.685-12.605 18.363-27.999 3.89-30.384 14.806-14.464 29.555-25.81 16.998-26.829z"/>
 <path d="m361.5 484.73s-8.869-1.453-20.803-8.21c-9.162-5.2-15.651-13.979-15.307-18.746 0.754-11.01 11.443-0.683 13.292 10.951 6.414-2.701 16.235 0.122 12.874 7.511 8.262-4.992 21.618 4.439 9.944 8.494z"/>
 <path d="m141.49 282.83s-31.056 19.323-33.65 9.64c-2.891-10.667 0.959-18.276 6.879-6.603 4.885-26.143 12.329-10.034 16.171-2.895 1.127-24.768 5.719-9.927 10.6-0.142z"/>
 <path d="m157.11 334.62s-26.613 18.632-31.616 8.807c-4.929-9.691 2.638-17.483 8.573-5.825 4.856-26.131 7.416-11.254 11.263-4.107 1.137-24.777 6.891-8.653 11.78 1.125z"/>
 <path d="m137.88 227.61s-35.486 3.219-31.699-7.16c5.481-14.99 12.665-15.239 10.449-2.35 8.277-14.659 13.348-6.014 12.163 2.014 15.729-19.168 11.03-3.261 9.087 7.496z"/>
 <path d="m355.45 310.99c-0.462 2.816-3.115 4.735-5.935 4.265-2.828-0.478-4.751-3.14-4.281-5.971 0.481-2.82 3.14-4.723 5.971-4.246 2.824 0.467 4.711 3.125 4.245 5.952z"/>
 <path d="m365.59 324.25c-0.371 2.16-2.386 3.605-4.541 3.242-2.149-0.348-3.578-2.374-3.223-4.53 0.355-2.132 2.369-3.585 4.51-3.23 2.14 0.356 3.609 2.382 3.254 4.518z"/>
 <path d="m491.51 312.35c-0.236 1.358-1.532 2.287-2.874 2.058-1.383-0.237-2.307-1.509-2.086-2.887 0.237-1.351 1.524-2.283 2.892-2.062 1.357 0.217 2.289 1.517 2.068 2.891z"/>
 <path d="m505.51 302.16c-0.411 2.433-2.701 4.091-5.118 3.696-2.44-0.415-4.099-2.725-3.696-5.153 0.41-2.448 2.725-4.103 5.165-3.685 2.416 0.403 4.059 2.714 3.649 5.142z"/>
 <path d="m502.03 327.68c-0.269 1.568-1.761 2.618-3.293 2.35-1.564-0.253-2.623-1.729-2.362-3.278 0.254-1.572 1.73-2.622 3.286-2.365 1.564 0.253 2.622 1.725 2.369 3.293z"/>
 <path d="m345.26 333.2c-0.323 1.939-2.18 3.278-4.118 2.95-1.955-0.332-3.263-2.168-2.935-4.103 0.315-1.955 2.148-3.266 4.099-2.95 1.951 0.328 3.27 2.172 2.954 4.103z"/>
 <path d="m475.52 273.28l25.188-33.887 5.938 42.847s-7.322-5.019-31.126-8.96z" fill="#252223"/>
</svg>
